<?xml version="1.0" encoding="UTF-8" standalone="no"?>
<svg xmlns:dc="http://purl.org/dc/elements/1.1/" xmlns:cc="http://creativecommons.org/ns#" xmlns:rdf="http://www.w3.org/1999/02/22-rdf-syntax-ns#" xmlns:svg="http://www.w3.org/2000/svg" xmlns="http://www.w3.org/2000/svg" xmlns:sodipodi="http://sodipodi.sourceforge.net/DTD/sodipodi-0.dtd" xmlns:inkscape="http://www.inkscape.org/namespaces/inkscape" width="364" height="1081" viewBox="0 0 450 1335" version="1.1" id="svg8" inkscape:version="0.92.4 (5da689c313, 2019-01-14)" sodipodi:docname="KY-038.svg" inkscape:export-filename="C:\Users\Entwicklung5.SIMACGMBH\Desktop\SEN-KIT02\Abbildungen Fertig\KY-038\KY-038.png" inkscape:export-xdpi="93" inkscape:export-ydpi="93">
  <defs id="defs2">
    <inkscape:perspective sodipodi:type="inkscape:persp3d" inkscape:vp_x="0 : 148.49996 : 1" inkscape:vp_y="0 : 999.99979 : 0" inkscape:vp_z="210.00001 : 148.49996 : 1" inkscape:persp3d-origin="105 : 98.99998 : 1" id="perspective876"/>
  </defs>
  <sodipodi:namedview id="base" pagecolor="#323232" bordercolor="#666666" borderopacity="1.0" inkscape:pageopacity="0" inkscape:pageshadow="2" inkscape:zoom="0.16000001" inkscape:cx="-124.64576" inkscape:cy="2013.9315" inkscape:document-units="mm" inkscape:current-layer="layer1" showgrid="false" inkscape:window-width="1920" inkscape:window-height="1017" inkscape:window-x="-8" inkscape:window-y="-8" inkscape:window-maximized="1" width="500mm" showguides="true" inkscape:lockguides="false"/>
  <metadata id="metadata5">
    <rdf:RDF>
      <cc:Work rdf:about="">
        <dc:format>image/svg+xml</dc:format>
        <dc:type rdf:resource="http://purl.org/dc/dcmitype/StillImage"/>
        <dc:title/>
      </cc:Work>
    </rdf:RDF>
  </metadata>
  <g inkscape:label="Ebene 1" inkscape:groupmode="layer" id="layer1" transform="translate(0.31582593,1037.811)">
    <path style="opacity:1;fill:#800000;fill-opacity:1;stroke:#000000;stroke-width:0;stroke-miterlimit:4;stroke-dasharray:none;stroke-opacity:1" d="m 349.684,-1031.9546 v 218.06264 l -249.999731,0.30437 V -1031.4079 H -0.31582593 v 217.94173 1.05833 h 5.1677e-4 L 0.25933275,88.514436 449.91663,87.967701 449.34198,-812.95457 h 0.34211 v -219.00003 z" id="rect815" inkscape:connector-curvature="0"/>
    <text xml:space="preserve" style="font-style:normal;font-variant:normal;font-weight:normal;font-stretch:normal;font-size:4.23333311px;line-height:1.25;font-family:Calibri;-inkscape-font-specification:'Calibri, Normal';font-variant-ligatures:normal;font-variant-caps:normal;font-variant-numeric:normal;font-feature-settings:normal;text-align:start;letter-spacing:0px;word-spacing:0px;writing-mode:lr-tb;text-anchor:start;fill:#ffffff;fill-opacity:1;stroke:none;stroke-width:0.26458332" x="183.04044" y="206.79973" id="text819"><tspan sodipodi:role="line" id="tspan817" x="183.04044" y="210.50389" style="fill:#ffffff;fill-opacity:1;stroke-width:0.26458332"/></text>
    <rect style="opacity:1;fill:#ffffff;fill-opacity:1;stroke:#000000;stroke-width:0;stroke-miterlimit:4;stroke-dasharray:none;stroke-opacity:1" id="rect821" width="314.93799" height="79.867264" x="67.388359" y="2.1427186" ry="0" transform="matrix(0.99999974,-7.2393113e-4,0.00107908,0.99999942,0,0)"/>
    <rect style="opacity:1;fill:#1a1a1a;fill-opacity:1;stroke:#000000;stroke-width:0;stroke-miterlimit:4;stroke-dasharray:none;stroke-opacity:1" id="rect825" width="76.666504" height="70.899185" x="68.972054" y="6.7183061" ry="14.842078" transform="rotate(-0.05010999)"/>
    <rect y="6.7183061" x="225.54669" height="70.899185" width="76.666504" id="rect872" style="opacity:1;fill:#1a1a1a;fill-opacity:1;stroke:#000000;stroke-width:0;stroke-miterlimit:4;stroke-dasharray:none;stroke-opacity:1" ry="14.842078" transform="rotate(-0.05010999)"/>
    <rect y="6.7183061" x="147.25941" height="70.899185" width="76.666504" id="rect874" style="opacity:1;fill:#1a1a1a;fill-opacity:1;stroke:#000000;stroke-width:0;stroke-miterlimit:4;stroke-dasharray:none;stroke-opacity:1" ry="12.930591" transform="rotate(-0.05010999)"/>
    <rect style="opacity:0.98999999;fill:#808080;fill-opacity:1;stroke:#ffffff;stroke-width:0;stroke-linejoin:round;stroke-miterlimit:4;stroke-dasharray:none;stroke-opacity:1;paint-order:normal" id="rect947" width="7.9212165" height="149.99272" x="102.96963" y="45.316311" transform="matrix(0.99999957,-9.2573385e-4,8.2759879e-4,0.99999966,0,0)"/>
    <rect y="45.317913" x="181.70982" height="149.99509" width="7.921217" id="rect949" style="opacity:0.98999999;fill:#808080;fill-opacity:1;stroke:#ffffff;stroke-width:0;stroke-linejoin:round;stroke-miterlimit:4;stroke-dasharray:none;stroke-opacity:1;paint-order:normal" transform="matrix(0.99999957,-9.2574885e-4,8.2761898e-4,0.99999966,0,0)"/>
    <rect style="opacity:0.98999999;fill:#808080;fill-opacity:1;stroke:#ffffff;stroke-width:0;stroke-linejoin:round;stroke-miterlimit:4;stroke-dasharray:none;stroke-opacity:1;paint-order:normal" id="rect951" width="7.921217" height="149.99509" x="259.54395" y="45.321941" transform="matrix(0.99999957,-9.2574885e-4,8.2761898e-4,0.99999966,0,0)"/>
    <text xml:space="preserve" style="font-style:normal;font-variant:normal;font-weight:normal;font-stretch:normal;font-size:11.28888893px;line-height:1.25;font-family:'Proxy 1';-inkscape-font-specification:'Proxy 1, ';font-variant-ligatures:normal;font-variant-caps:normal;font-variant-numeric:normal;font-feature-settings:normal;text-align:start;letter-spacing:0px;word-spacing:0px;writing-mode:lr-tb;text-anchor:start;fill:#000000;fill-opacity:1;stroke:none;stroke-width:0.26458332" x="-361.41769" y="-216.86821" id="text959"><tspan sodipodi:role="line" id="tspan957" x="-361.41769" y="-206.47433" style="fill:#000000;stroke-width:0.26458332"/></text>
    <text xml:space="preserve" style="font-style:normal;font-variant:normal;font-weight:normal;font-stretch:normal;font-size:11.28888893px;line-height:1.25;font-family:'Proxy 1';-inkscape-font-specification:'Proxy 1, ';font-variant-ligatures:normal;font-variant-caps:normal;font-variant-numeric:normal;font-feature-settings:normal;text-align:start;letter-spacing:0px;word-spacing:0px;writing-mode:lr-tb;text-anchor:start;fill:#ffffff;fill-opacity:1;stroke:none;stroke-width:0.26458332" x="170.41783" y="235.22038" id="text963"><tspan sodipodi:role="line" id="tspan961" x="170.41783" y="245.61426" style="fill:#ffffff;stroke-width:0.26458332"/></text>
    <text xml:space="preserve" style="font-style:normal;font-variant:normal;font-weight:normal;font-stretch:normal;font-size:11.28888893px;line-height:1.25;font-family:'Proxy 1';-inkscape-font-specification:'Proxy 1, ';font-variant-ligatures:normal;font-variant-caps:normal;font-variant-numeric:normal;font-feature-settings:normal;text-align:start;letter-spacing:0px;word-spacing:0px;writing-mode:lr-tb;text-anchor:start;fill:#00ff00;fill-opacity:1;stroke:none;stroke-width:0.26458332" x="246.03561" y="210.39043" id="text967"><tspan sodipodi:role="line" id="tspan965" x="246.03561" y="220.7843" style="fill:#00ff00;fill-opacity:1;stroke-width:0.26458332"/></text>
    <flowRoot xml:space="preserve" id="flowRoot969" style="font-style:normal;font-variant:normal;font-weight:normal;font-stretch:normal;font-size:42.66666794px;line-height:1.25;font-family:'Proxy 1';-inkscape-font-specification:'Proxy 1, ';font-variant-ligatures:normal;font-variant-caps:normal;font-variant-numeric:normal;font-feature-settings:normal;text-align:start;letter-spacing:0px;word-spacing:0px;writing-mode:lr-tb;text-anchor:start;fill:#000000;fill-opacity:1;stroke:none" transform="translate(121.05234,19.412821)"><flowRegion id="flowRegion971"><rect id="rect973" width="373.57144" height="181.42857" x="249.28572" y="630.71198"/></flowRegion><flowPara id="flowPara975"/></flowRoot>    <flowRoot xml:space="preserve" id="flowRoot1466" style="font-style:normal;font-variant:normal;font-weight:normal;font-stretch:normal;font-size:42.66666794px;line-height:1.25;font-family:Calibri;-inkscape-font-specification:Calibri;font-variant-ligatures:normal;font-variant-caps:normal;font-variant-numeric:normal;font-feature-settings:normal;text-align:start;letter-spacing:0px;word-spacing:0px;writing-mode:lr-tb;text-anchor:start;fill:#ffffff;fill-opacity:1;stroke:none" transform="translate(121.05234,19.412821)"><flowRegion id="flowRegion1468" style="font-style:normal;font-variant:normal;font-weight:normal;font-stretch:normal;font-family:Calibri;-inkscape-font-specification:Calibri;fill:#ffffff;fill-opacity:1"><rect id="rect1470" width="414.1825" height="372.47485" x="1288.5094" y="1923.5425" style="font-style:normal;font-variant:normal;font-weight:normal;font-stretch:normal;font-family:Calibri;-inkscape-font-specification:Calibri;fill:#ffffff;fill-opacity:1"/></flowRegion><flowPara id="flowPara1472"/></flowRoot>    <flowRoot xml:space="preserve" id="flowRoot1529" style="font-style:normal;font-variant:normal;font-weight:normal;font-stretch:normal;font-size:266.66665649px;line-height:1.25;font-family:'Proxy 1';-inkscape-font-specification:'Proxy 1, ';font-variant-ligatures:normal;font-variant-caps:normal;font-variant-numeric:normal;font-feature-settings:normal;text-align:start;letter-spacing:0px;word-spacing:0px;writing-mode:lr-tb;text-anchor:start;fill:#000000;fill-opacity:1;stroke:none" transform="translate(121.05234,19.412821)"><flowRegion id="flowRegion1531" style="font-size:266.66665649px"><rect id="rect1533" width="2157.6858" height="2311.229" x="-2691.0464" y="-332.2605" style="font-size:266.66665649px"/></flowRegion><flowPara id="flowPara1535"/></flowRoot>    <rect ry="0" y="-264.61487" x="63.606911" height="80.684937" width="320.70575" id="rect87" style="opacity:1;fill:#800000;fill-opacity:1;stroke:#000000;stroke-width:0;stroke-miterlimit:4;stroke-dasharray:none;stroke-opacity:1" transform="rotate(-0.05010999)"/>
    <path style="fill:#ffffff;stroke-width:0.16109252" d="m 127.76564,-636.44836 c 2.78566,-0.0555 3.09023,-0.09 3.60955,-0.40954 0.31193,-0.19192 0.71288,-0.58813 0.89103,-0.88046 0.30607,-0.50245 0.32604,-0.86138 0.36626,-6.5674 l 0.0427,-6.03592 5.95133,0.0287 5.95133,0.0287 0.006,7.52247 c 0.008,8.29381 -0.057,9.07492 -0.92067,11.25378 -1.13159,2.85459 -2.78552,4.18027 -6.19894,4.96867 -0.91611,0.21159 -1.96278,0.258 -5.4315,0.24084 -2.36321,-0.0116 -4.95337,-0.0796 -5.75604,-0.15095 l -1.4594,-0.1297 -0.0473,-4.90431 -0.0473,-4.90426 3.04233,-0.0605 z m 56.68463,16.79513 c 50.78319,-0.0311 63.27564,0.0178 61.16713,0.2395 l -0.32427,0.0341 0.32442,0.13729 c 0.27151,0.11487 0.23184,0.14369 -0.24304,0.17664 -0.37568,0.026 -0.21113,0.0744 0.48652,0.14324 l 1.054,0.10389 -1.05387,0.0471 c -0.57956,0.0258 -0.92612,0.0798 -0.76999,0.12006 0.24176,0.0622 0.28393,0.27126 0.28493,1.41104 0.001,1.33686 0.002,1.33814 0.44714,1.40436 0.31313,0.0466 0.24067,0.0737 -0.24313,0.0909 -0.37897,0.0135 -0.689,0.0966 -0.68893,0.18462 9e-5,0.10642 -20.13216,0.17767 -60.07236,0.2126 l -60.07248,0.0526 -0.002,-2.16072 -0.002,-2.16071 z m -45.80427,-46.23105 5.9992,-0.005 0.005,4.8816 0.005,4.88162 -5.9992,0.005 -5.99909,0.005 -0.005,-4.88162 -0.005,-4.88159 z m 12.11414,17.99537 c 0.4243,-2.74605 1.18127,-5.18709 2.28377,-7.36443 0.40141,-0.79263 0.77771,-1.47718 0.83627,-1.52124 0.059,-0.0441 0.35919,-0.47573 0.66796,-0.95924 0.62364,-0.97656 2.04651,-2.73385 2.37463,-2.93266 0.11644,-0.0706 0.21153,-0.19373 0.21147,-0.27386 -1.9e-4,-0.21222 1.49883,-1.5655 2.67029,-2.41056 1.23433,-0.89055 2.23958,-1.39065 4.45976,-2.21883 2.59096,-0.96648 4.11076,-1.19674 7.21425,-1.09297 2.25056,0.0753 2.80922,0.14998 4.21609,0.56394 0.89204,0.26245 1.97455,0.62624 2.40572,0.8084 0.43115,0.18217 0.86089,0.33113 0.95499,0.33106 0.094,-8e-5 0.76119,0.34146 1.48266,0.75896 2.87514,1.664 6.79725,6.1089 8.31103,9.41902 2.37155,5.1853 2.6742,10.39491 0.88382,15.20866 -0.75304,2.02469 -1.29694,3.17692 -2.17389,4.60587 -1.01325,1.65087 -1.09516,1.74705 -3.55753,4.1762 -2.82368,2.78559 -4.85035,3.96763 -8.53526,4.97819 -1.87805,0.51504 -5.56929,0.71229 -7.56025,0.404 -2.58896,-0.40086 -6.03713,-1.85181 -8.16661,-3.43637 -1.09993,-0.81849 -2.57884,-2.1076 -2.57897,-2.24803 -4e-5,-0.0426 -0.3713,-0.45484 -0.825,-0.91629 -2.15862,-2.19549 -4.38389,-6.49328 -5.19738,-10.03824 -0.30355,-1.32264 -0.53145,-4.84689 -0.37782,-5.84158 z m 11.47783,5.0511 c 0.58398,2.26303 1.73857,4.19656 3.52327,5.90019 1.805,1.72298 4.67606,2.36319 7.14629,1.59351 2.72086,-0.84777 5.41178,-4.02966 6.29868,-7.44801 0.5085,-1.95942 0.46889,-4.81789 -0.0928,-6.71616 -0.79784,-2.69578 -2.2186,-4.80258 -4.19033,-6.21355 -0.90308,-0.64627 -1.31923,-0.83125 -2.27088,-1.00953 -2.03885,-0.382 -4.12387,-0.17122 -5.58093,0.56413 -1.28063,0.64635 -2.90503,2.47318 -3.83663,4.31478 -1.40645,2.78047 -1.766,6.03276 -0.99661,9.01464 z m 33.69247,-23.02666 c 0.10747,-0.0409 2.81347,-0.0576 6.01329,-0.0371 l 5.81783,0.0371 0.0227,5.36175 c 0.0214,5.06539 0.0427,5.41356 0.3728,6.29906 0.84922,2.2765 3.6004,3.52203 6.01179,2.72167 1.23916,-0.41127 2.07502,-1.1322 2.6741,-2.30643 l 0.53087,-1.0408 0.0431,-5.56189 0.0431,-5.56187 6.0044,-0.005 6.00441,-0.005 -0.0595,6.28212 c -0.0558,5.84614 -0.0844,6.37102 -0.41258,7.56287 -0.66798,2.42403 -1.73644,4.54356 -3.12189,6.19348 -0.34614,0.41222 -0.62938,0.81938 -0.62931,0.90479 1.8e-4,0.2087 -1.51654,1.5674 -2.86207,2.56394 -1.14026,0.84447 -2.76241,1.70035 -3.55896,1.87776 -0.25624,0.057 -1.08584,0.29548 -1.84363,0.52981 -1.27666,0.39476 -1.59223,0.42624 -4.29633,0.4286 -2.7164,0.003 -3.03082,-0.0288 -4.5403,-0.4501 -2.38938,-0.66689 -3.17047,-1.00035 -4.76057,-2.03246 -1.80243,-1.16991 -3.31964,-2.6719 -4.58228,-4.53647 -1.7825,-2.63215 -2.52932,-4.58688 -2.90796,-7.61113 -0.24714,-1.97343 -0.21748,-11.51769 0.0359,-11.61397 z m 16.75796,29.52522 9.80939,-0.009 0.004,5.04164 0.004,5.04167 -9.80939,0.009 -9.80939,0.009 -0.004,-5.04168 -0.004,-5.04165 z m 16.74878,-37.30697 c 0.089,-7e-5 0.16184,-0.27844 0.16154,-0.61859 -5.3e-4,-0.61441 0.01,-0.61914 0.75168,-0.7209 0.41365,-0.0564 17.0309,-0.11679 36.92698,-0.13434 l 36.17499,-0.032 -0.0471,2.16103 -0.0471,2.16101 -36.78358,0.0322 c -20.2309,0.018 -36.89892,-0.0116 -37.03997,-0.0648 -0.20577,-0.0777 -0.25681,-0.36295 -0.25775,-1.44023 -6.9e-4,-0.78885 0.0658,-1.3434 0.16092,-1.34348 z m 16.55932,24.1535 12.48469,-0.0104 0.005,4.96163 0.005,4.96165 -12.48469,0.0104 -12.4847,0.0104 -0.004,-4.96165 -0.004,-4.96163 z m 22.36077,-16.505 5.99909,-0.005 0.005,4.8816 0.005,4.88162 -5.99909,0.005 -5.9992,0.005 -0.005,-4.88162 -0.005,-4.8816 z m 0.0138,14.88491 5.99909,-0.005 0.0105,12.64417 0.0105,12.64417 -5.99909,0.005 -5.9992,0.005 -0.0105,-12.64416 -0.0105,-12.64417 z m 23.90237,-14.90582 12.5658,-0.0105 0.005,4.88158 0.005,4.88162 -12.56581,0.0105 -12.5657,0.0105 -0.005,-4.88161 -0.005,-4.8816 z m -10.46413,15.62646 c 0.078,-0.0479 2.73563,-0.0869 5.90562,-0.0869 l 5.7635,5.8e-4 0.058,5.79408 c 0.081,8.12608 -0.25299,7.68288 5.85609,7.76441 l 3.85084,0.0514 0.005,5.08601 0.005,5.08598 -1.42954,0.18224 c -2.15816,0.27514 -9.02309,0.24031 -10.87936,-0.0552 -3.19135,-0.50806 -5.26369,-1.48975 -6.65056,-3.15042 -1.4393,-1.72354 -2.12374,-3.48075 -2.44589,-6.27913 -0.20293,-1.76255 -0.23569,-14.27154 -0.0375,-14.39256 z m 30.07845,-20.41569 c 0.30168,-1.06252 0.89808,-2.08232 1.55737,-2.6632 2.71531,-2.39253 5.9906,-2.64809 8.67992,-0.67734 1.2617,0.92461 1.57572,1.2838 2.11601,2.42041 0.40996,0.86232 0.45599,1.12956 0.45471,2.63999 0.001,1.51015 -0.0484,1.78271 -0.46874,2.68793 -0.90889,1.9594 -3.20405,3.50174 -5.458,3.66777 -2.10029,0.1547 -3.70391,-0.46165 -5.3612,-2.06048 -1.47866,-1.4264 -2.11175,-3.93168 -1.52007,-6.01508 z m 1.18462,4.13082 c 0.54843,1.29091 2.24613,2.55869 3.99461,2.983 1.75007,0.42469 3.07785,0.0662 5.0695,-1.36857 0.47711,-0.34369 0.83409,-0.80865 1.21002,-1.57588 0.47436,-0.96834 0.53352,-1.24013 0.53664,-2.46493 -10e-4,-1.26208 -0.0443,-1.46788 -0.56486,-2.47415 -0.46068,-0.88941 -0.75308,-1.22655 -1.54185,-1.77752 -0.53543,-0.37397 -1.3384,-0.80284 -1.78444,-0.95309 -2.73731,-0.92203 -6.0251,0.56888 -7.12257,3.22987 -0.41681,1.0106 -0.31693,3.1778 0.20295,4.40127 z m 4.43763,-6.24604 c 1.2204,-10e-4 2.40606,0.0683 2.63483,0.15386 0.98072,0.36709 1.42516,2.23037 0.73811,3.09418 -0.1809,0.22738 -0.57836,0.50271 -0.88327,0.61186 l -0.55442,0.19845 0.55704,0.60761 c 0.30639,0.33418 0.78457,1.00479 1.0627,1.49026 0.27813,0.48545 0.57171,0.92285 0.65245,0.97199 0.34809,0.21195 0.0963,0.38998 -0.54217,0.3828 l -0.6891,-0.009 -0.97413,-1.52462 c -1.04144,-1.62992 -1.2942,-1.81777 -2.4442,-1.81675 l -0.7191,6.2e-4 10e-4,1.6907 0.001,1.69069 -0.48905,-0.0496 -0.48914,-0.0497 -0.0412,-3.72129 -0.0412,-3.7213 z m 0.2753,3.20092 c 1.2086,-10e-4 1.50536,-0.0542 1.86432,-0.33336 0.89018,-0.69251 0.38341,-1.80705 -0.90054,-1.98037 -0.53766,-0.0726 -2.06523,-0.0329 -2.36264,0.0614 -0.022,0.007 -0.0405,0.517 -0.0399,1.13321 l 9.7e-4,1.12036 z" id="path31-1" inkscape:connector-curvature="0"/>
    <rect transform="rotate(-0.05010999)" ry="14.842078" style="opacity:1;fill:#1a1a1a;fill-opacity:1;stroke:#000000;stroke-width:0;stroke-miterlimit:4;stroke-dasharray:none;stroke-opacity:1" id="rect64" width="76.666504" height="70.899185" x="303.33423" y="6.7631898"/>
    <rect transform="matrix(0.99999957,-9.2574885e-4,8.2761898e-4,0.99999966,0,0)" y="45.37077" x="337.33151" height="149.99509" width="7.921217" id="rect66" style="opacity:0.98999999;fill:#808080;fill-opacity:1;stroke:#ffffff;stroke-width:0;stroke-linejoin:round;stroke-miterlimit:4;stroke-dasharray:none;stroke-opacity:1;paint-order:normal"/>
    <circle style="opacity:1;fill:#cccccc;fill-opacity:1;stroke:#ffd700;stroke-width:0;stroke-linejoin:round;stroke-miterlimit:4;stroke-dasharray:none;stroke-opacity:1;paint-order:normal" id="path107" cx="224.68417" cy="-158.78636" r="110"/>
    <circle style="opacity:1;fill:#ffffff;fill-opacity:1;stroke:#ffd700;stroke-width:0;stroke-linejoin:round;stroke-miterlimit:4;stroke-dasharray:none;stroke-opacity:1;paint-order:normal" id="path133" cx="224.68417" cy="-158.78636" r="90"/>
    <rect style="opacity:1;fill:#ffffff;fill-opacity:1;stroke:#ffd700;stroke-width:0;stroke-linejoin:round;stroke-miterlimit:4;stroke-dasharray:none;stroke-opacity:1;paint-order:normal" id="rect137" width="170" height="300" x="-0.31582549" y="-579.97363"/>
    <rect style="opacity:1;fill:#800000;fill-opacity:1;stroke:#ffd700;stroke-width:0;stroke-linejoin:round;stroke-miterlimit:4;stroke-dasharray:none;stroke-opacity:1;paint-order:normal" id="rect141" width="160" height="288" x="-0.31582543" y="-573.84473"/>
    <rect style="opacity:1;fill:#0000ff;fill-opacity:1;stroke:#b5a642;stroke-width:0;stroke-linejoin:round;stroke-miterlimit:4;stroke-dasharray:none;stroke-opacity:1;paint-order:normal" id="rect139" width="160" height="290" x="4.6841745" y="-574.78638"/>
    <circle style="opacity:1;fill:#ab9c38;fill-opacity:1;stroke:#b5a642;stroke-width:0;stroke-linejoin:round;stroke-miterlimit:4;stroke-dasharray:none;stroke-opacity:1;paint-order:normal" id="path144" cx="29.68416" cy="-309.78638" r="25" inkscape:transform-center-x="7.5703852" inkscape:transform-center-y="6.4056526"/>
    <rect style="opacity:1;fill:#978521;fill-opacity:1;stroke:#b5a642;stroke-width:0;stroke-linejoin:round;stroke-miterlimit:4;stroke-dasharray:none;stroke-opacity:1;paint-order:normal" id="rect952" width="50" height="7.999999" x="4.6841745" y="-313.78638"/>
    <rect style="opacity:1;fill:#ffffff;fill-opacity:1;stroke:#b5a642;stroke-width:0;stroke-linejoin:round;stroke-miterlimit:4;stroke-dasharray:none;stroke-opacity:1;paint-order:normal" id="rect956" width="218" height="170" x="231.68417" y="-529.78638"/>
    <rect style="opacity:1;fill:#800000;fill-opacity:1;stroke:#b5a642;stroke-width:0;stroke-linejoin:round;stroke-miterlimit:4;stroke-dasharray:none;stroke-opacity:1;paint-order:normal" id="rect958" width="208" height="160" x="236.68417" y="-524.78638"/>
    <rect style="opacity:1;fill:#000000;fill-opacity:1;stroke:#b5a642;stroke-width:0;stroke-linejoin:round;stroke-miterlimit:4;stroke-dasharray:none;stroke-opacity:1;paint-order:normal" id="rect960" width="140" height="140" x="270.68417" y="-514.78638"/>
    <rect style="opacity:1;fill:#cccccc;fill-opacity:1;stroke:#b5a642;stroke-width:0;stroke-linejoin:round;stroke-miterlimit:4;stroke-dasharray:none;stroke-opacity:1;paint-order:normal" id="rect962" width="24.999998" height="40" x="270.68417" y="-374.78638"/>
    <rect y="-374.78638" x="385.68417" height="40" width="24.999998" id="rect964" style="opacity:1;fill:#cccccc;fill-opacity:1;stroke:#b5a642;stroke-width:0;stroke-linejoin:round;stroke-miterlimit:4;stroke-dasharray:none;stroke-opacity:1;paint-order:normal"/>
    <rect style="opacity:1;fill:#cccccc;fill-opacity:1;stroke:#b5a642;stroke-width:0;stroke-linejoin:round;stroke-miterlimit:4;stroke-dasharray:none;stroke-opacity:1;paint-order:normal" id="rect966" width="24.999998" height="40" x="305.68417" y="-374.78638"/>
    <rect y="-374.78638" x="350.68417" height="40" width="24.999998" id="rect968" style="opacity:1;fill:#cccccc;fill-opacity:1;stroke:#b5a642;stroke-width:0;stroke-linejoin:round;stroke-miterlimit:4;stroke-dasharray:none;stroke-opacity:1;paint-order:normal"/>
    <rect y="-554.78638" x="270.68417" height="40" width="24.999998" id="rect970" style="opacity:1;fill:#cccccc;fill-opacity:1;stroke:#b5a642;stroke-width:0;stroke-linejoin:round;stroke-miterlimit:4;stroke-dasharray:none;stroke-opacity:1;paint-order:normal"/>
    <rect style="opacity:1;fill:#cccccc;fill-opacity:1;stroke:#b5a642;stroke-width:0;stroke-linejoin:round;stroke-miterlimit:4;stroke-dasharray:none;stroke-opacity:1;paint-order:normal" id="rect972" width="24.999998" height="40" x="385.68417" y="-554.78638"/>
    <rect y="-554.78638" x="305.68417" height="40" width="24.999998" id="rect974" style="opacity:1;fill:#cccccc;fill-opacity:1;stroke:#b5a642;stroke-width:0;stroke-linejoin:round;stroke-miterlimit:4;stroke-dasharray:none;stroke-opacity:1;paint-order:normal"/>
    <rect style="opacity:1;fill:#cccccc;fill-opacity:1;stroke:#b5a642;stroke-width:0;stroke-linejoin:round;stroke-miterlimit:4;stroke-dasharray:none;stroke-opacity:1;paint-order:normal" id="rect976" width="24.999998" height="40" x="350.68417" y="-554.78638"/>
    <rect style="opacity:0.98999999;fill:#808080;fill-opacity:1;stroke:#ffffff;stroke-width:0;stroke-linejoin:round;stroke-miterlimit:4;stroke-dasharray:none;stroke-opacity:1;paint-order:normal" id="rect978" width="7.9212141" height="24.999052" x="281.06995" y="-379.74646" transform="matrix(0.99999999,-1.5428888e-4,0.00496574,0.99998767,0,0)"/>
    <rect transform="matrix(0.99999999,-1.5428888e-4,0.00496574,0.99998767,0,0)" y="-379.74106" x="316.06992" height="24.999052" width="7.9212141" id="rect980" style="opacity:0.98999999;fill:#808080;fill-opacity:1;stroke:#ffffff;stroke-width:0;stroke-linejoin:round;stroke-miterlimit:4;stroke-dasharray:none;stroke-opacity:1;paint-order:normal"/>
    <rect transform="matrix(0.99999999,-1.5428888e-4,0.00496574,0.99998767,0,0)" y="-379.7341" x="361.06989" height="24.999052" width="7.9212141" id="rect982" style="opacity:0.98999999;fill:#808080;fill-opacity:1;stroke:#ffffff;stroke-width:0;stroke-linejoin:round;stroke-miterlimit:4;stroke-dasharray:none;stroke-opacity:1;paint-order:normal"/>
    <rect style="opacity:0.98999999;fill:#808080;fill-opacity:1;stroke:#ffffff;stroke-width:0;stroke-linejoin:round;stroke-miterlimit:4;stroke-dasharray:none;stroke-opacity:1;paint-order:normal" id="rect984" width="7.9212141" height="24.999052" x="396.06985" y="-379.7287" transform="matrix(0.99999999,-1.5428888e-4,0.00496574,0.99998767,0,0)"/>
    <rect transform="matrix(0.99999999,1.5428895e-4,0.00496574,-0.99998767,0,0)" y="509.83655" x="276.6525" height="24.999063" width="7.9212141" id="rect986" style="opacity:0.98999999;fill:#808080;fill-opacity:1;stroke:#ffffff;stroke-width:0;stroke-linejoin:round;stroke-miterlimit:4;stroke-dasharray:none;stroke-opacity:1;paint-order:normal"/>
    <rect style="opacity:0.98999999;fill:#808080;fill-opacity:1;stroke:#ffffff;stroke-width:0;stroke-linejoin:round;stroke-miterlimit:4;stroke-dasharray:none;stroke-opacity:1;paint-order:normal" id="rect988" width="7.9212141" height="24.999063" x="311.65247" y="509.84195" transform="matrix(0.99999999,1.5428895e-4,0.00496574,-0.99998767,0,0)"/>
    <rect style="opacity:0.98999999;fill:#808080;fill-opacity:1;stroke:#ffffff;stroke-width:0;stroke-linejoin:round;stroke-miterlimit:4;stroke-dasharray:none;stroke-opacity:1;paint-order:normal" id="rect990" width="7.9212141" height="24.999063" x="356.6525" y="509.84891" transform="matrix(0.99999999,1.5428895e-4,0.00496574,-0.99998767,0,0)"/>
    <rect transform="matrix(0.99999999,1.5428895e-4,0.00496574,-0.99998767,0,0)" y="509.85428" x="391.65247" height="24.999063" width="7.9212141" id="rect992" style="opacity:0.98999999;fill:#808080;fill-opacity:1;stroke:#ffffff;stroke-width:0;stroke-linejoin:round;stroke-miterlimit:4;stroke-dasharray:none;stroke-opacity:1;paint-order:normal"/>
    <circle style="opacity:1;fill:#cccccc;fill-opacity:1;stroke:#b5a642;stroke-width:0;stroke-linejoin:round;stroke-miterlimit:4;stroke-dasharray:none;stroke-opacity:1;paint-order:normal" id="path994" cx="399.68417" cy="-934.78632" r="35"/>
    <circle r="35" cy="-934.78632" cx="49.684174" id="circle996" style="opacity:1;fill:#cccccc;fill-opacity:1;stroke:#b5a642;stroke-width:0;stroke-linejoin:round;stroke-miterlimit:4;stroke-dasharray:none;stroke-opacity:1;paint-order:normal"/>
    <rect y="-799.78632" x="151.87634" height="55" width="70" id="rect836-7" style="opacity:1;fill:#cccccc;fill-opacity:1;stroke:#000000;stroke-width:0;stroke-miterlimit:4;stroke-dasharray:none;stroke-opacity:1" ry="27.5"/>
    <rect y="-799.78632" x="226.86128" height="55" width="70" id="rect836-6" style="opacity:1;fill:#cccccc;fill-opacity:1;stroke:#000000;stroke-width:0;stroke-miterlimit:4;stroke-dasharray:none;stroke-opacity:1" ry="27.5"/>
    <rect y="320.56915" x="727.27032" height="51.845764" width="69.997841" id="rect943" style="opacity:1;fill:#cccccc;fill-opacity:1;stroke:#000000;stroke-width:0;stroke-miterlimit:4;stroke-dasharray:none;stroke-opacity:1" transform="matrix(-0.0082956,-0.99996559,0.99997305,-0.00734098,0,0)" ry="25.716602" rx="0"/>
    <rect transform="matrix(-9.5663495e-4,-0.99999954,0.99999958,-9.1349405e-4,0,0)" style="opacity:1;fill:#cccccc;fill-opacity:1;stroke:#000000;stroke-width:0;stroke-miterlimit:4;stroke-dasharray:none;stroke-opacity:1" id="rect1026" width="74.974297" height="51.951256" x="725.22327" y="89.250862" ry="11.893352"/>
    <circle style="opacity:1;fill:#ffffff;fill-opacity:1;stroke:#b5a642;stroke-width:0;stroke-linejoin:round;stroke-miterlimit:4;stroke-dasharray:none;stroke-opacity:1;paint-order:normal" id="path1028" cx="114.4967" cy="-750.31549" r="14.999999"/>
    <rect ry="27.412117" style="opacity:1;fill:#cccccc;fill-opacity:1;stroke:#000000;stroke-width:0;stroke-miterlimit:4;stroke-dasharray:none;stroke-opacity:1" id="rect1030" width="70.000687" height="54.824234" x="-799.56848" y="-93.402412" transform="matrix(0.01175509,0.99993091,-0.99992639,0.01213346,0,0)"/>
    <circle cy="-765.31549" cx="56.996696" id="circle105" style="opacity:1;fill:#ffffff;fill-opacity:1;stroke:#b5a642;stroke-width:0;stroke-linejoin:round;stroke-miterlimit:4;stroke-dasharray:none;stroke-opacity:1;paint-order:normal" r="20"/>
    <circle style="opacity:1;fill:#ffffff;fill-opacity:1;stroke:#b5a642;stroke-width:0;stroke-linejoin:round;stroke-miterlimit:4;stroke-dasharray:none;stroke-opacity:1;paint-order:normal" id="path138" cx="49.684174" cy="-934.78632" r="30"/>
    <circle r="30" cy="-934.78632" cx="399.68417" id="circle140" style="opacity:1;fill:#ffffff;fill-opacity:1;stroke:#b5a642;stroke-width:0;stroke-linejoin:round;stroke-miterlimit:4;stroke-dasharray:none;stroke-opacity:1;paint-order:normal"/>
    <circle r="20" style="opacity:1;fill:#ffffff;fill-opacity:1;stroke:#b5a642;stroke-width:0;stroke-linejoin:round;stroke-miterlimit:4;stroke-dasharray:none;stroke-opacity:1;paint-order:normal" id="circle147" cx="340.21335" cy="-765.31549"/>
    <rect transform="matrix(0.99999979,-6.4090814e-4,0.00119544,0.99999929,0,0)" style="opacity:0.98999999;fill:#808080;fill-opacity:1;stroke:#ffffff;stroke-width:0;stroke-linejoin:round;stroke-miterlimit:4;stroke-dasharray:none;stroke-opacity:1;paint-order:normal" id="rect142" width="7.921216" height="103.84363" x="184.40352" y="-872.97302"/>
    <rect transform="matrix(0.9999998,-6.3167154e-4,0.00121292,0.99999926,0,0)" y="-871.49866" x="259.41699" height="102.34699" width="7.921216" id="rect144" style="opacity:0.98999999;fill:#808080;fill-opacity:1;stroke:#ffffff;stroke-width:0;stroke-linejoin:round;stroke-miterlimit:4;stroke-dasharray:none;stroke-opacity:1;paint-order:normal"/>
    <rect style="opacity:1;fill:#999999;fill-opacity:1;stroke:#b5a642;stroke-width:0;stroke-linejoin:round;stroke-miterlimit:4;stroke-dasharray:none;stroke-opacity:1;paint-order:normal" id="rect101" width="220.00002" height="74.439857" x="115.35987" y="-942.08905"/>
    <rect style="opacity:1;fill:#000000;fill-opacity:1;stroke:#b5a642;stroke-width:0;stroke-linejoin:round;stroke-miterlimit:4;stroke-dasharray:none;stroke-opacity:1;paint-order:normal" id="rect105" width="210" height="9.999999" x="120.35987" y="-952.14453"/>
    <text xml:space="preserve" style="font-style:normal;font-variant:normal;font-weight:normal;font-stretch:normal;font-size:52.17420197px;line-height:1.25;font-family:Calibri;-inkscape-font-specification:Calibri;font-variant-ligatures:normal;font-variant-caps:normal;font-variant-numeric:normal;font-feature-settings:normal;text-align:start;letter-spacing:0px;word-spacing:0px;writing-mode:lr-tb;text-anchor:start;fill:#000000;fill-opacity:1;stroke:none;stroke-width:1.2228328" x="135.68443" y="230.73042" id="text109"><tspan id="tspan107" sodipodi:role="line" x="135.68443" y="230.73042" style="fill:#000000;stroke-width:1.2228328">GND</tspan></text>
    <text id="text83" y="234.81081" x="272.42432" style="font-style:normal;font-variant:normal;font-weight:normal;font-stretch:normal;font-size:52.17420197px;line-height:1.25;font-family:Calibri;-inkscape-font-specification:Calibri;font-variant-ligatures:normal;font-variant-caps:normal;font-variant-numeric:normal;font-feature-settings:normal;text-align:start;letter-spacing:0px;word-spacing:0px;writing-mode:lr-tb;text-anchor:start;fill:#000000;fill-opacity:1;stroke:none;stroke-width:1.2228328" xml:space="preserve"><tspan style="fill:#000000;stroke-width:1.2228328" y="234.81081" x="272.42432" sodipodi:role="line" id="tspan81">Digital</tspan></text>
    <text xml:space="preserve" style="font-style:normal;font-variant:normal;font-weight:normal;font-stretch:normal;font-size:52.17420197px;line-height:1.25;font-family:Calibri;-inkscape-font-specification:Calibri;font-variant-ligatures:normal;font-variant-caps:normal;font-variant-numeric:normal;font-feature-settings:normal;text-align:start;letter-spacing:0px;word-spacing:0px;writing-mode:lr-tb;text-anchor:start;fill:#000000;fill-opacity:1;stroke:none;stroke-width:1.2228328" x="29.173962" y="287.89032" id="text87"><tspan id="tspan85" sodipodi:role="line" x="29.173962" y="287.89032" style="fill:#000000;stroke-width:1.2228328">Analog</tspan></text>
    <text id="text140" y="297.03613" x="235.33391" style="font-style:normal;font-variant:normal;font-weight:normal;font-stretch:normal;font-size:52.17420197px;line-height:1.25;font-family:Calibri;-inkscape-font-specification:Calibri;font-variant-ligatures:normal;font-variant-caps:normal;font-variant-numeric:normal;font-feature-settings:normal;text-align:start;letter-spacing:0px;word-spacing:0px;writing-mode:lr-tb;text-anchor:start;fill:#000000;fill-opacity:1;stroke:none;stroke-width:1.2228328" xml:space="preserve"><tspan style="fill:#000000;stroke-width:1.2228328" y="297.03613" x="235.33391" sodipodi:role="line" id="tspan138">+V</tspan></text>
    <text xml:space="preserve" style="font-style:normal;font-variant:normal;font-weight:normal;font-stretch:normal;font-size:63.5px;line-height:1.25;font-family:Calibri;-inkscape-font-specification:Calibri;font-variant-ligatures:normal;font-variant-caps:normal;font-variant-numeric:normal;font-feature-settings:normal;text-align:start;letter-spacing:0px;word-spacing:0px;writing-mode:lr-tb;text-anchor:start;fill:#ffffff;fill-opacity:1;stroke:none;stroke-width:0.26458332" x="615.25647" y="435.07248" id="text112" transform="rotate(-90)"><tspan sodipodi:role="line" id="tspan110" x="615.25647" y="435.07248" style="fill:#ffffff;stroke-width:0.26458332">KY-038</tspan></text>
    <text xml:space="preserve" style="font-style:normal;font-variant:normal;font-weight:normal;font-stretch:normal;font-size:63.5px;line-height:1.25;font-family:Calibri;-inkscape-font-specification:Calibri;font-variant-ligatures:normal;font-variant-caps:normal;font-variant-numeric:normal;font-feature-settings:normal;text-align:start;letter-spacing:0px;word-spacing:0px;writing-mode:lr-tb;text-anchor:start;fill:#ffffff;fill-opacity:1;stroke:none;stroke-width:0.26458332" x="72.37603" y="-3.4001114" id="text116"><tspan sodipodi:role="line" id="tspan114" x="72.37603" y="-3.4001114" style="fill:#ffffff;stroke-width:0.26458332">A0</tspan></text>
    <text xml:space="preserve" style="font-style:normal;font-variant:normal;font-weight:normal;font-stretch:normal;font-size:63.5px;line-height:1.25;font-family:Calibri;-inkscape-font-specification:Calibri;font-variant-ligatures:normal;font-variant-caps:normal;font-variant-numeric:normal;font-feature-settings:normal;text-align:start;letter-spacing:0px;word-spacing:0px;writing-mode:lr-tb;text-anchor:start;fill:#ffffff;fill-opacity:1;stroke:none;stroke-width:0.26458332" x="164.98038" y="-3.3776963" id="text120"><tspan sodipodi:role="line" id="tspan118" x="164.98038" y="-3.3776963" style="fill:#ffffff;stroke-width:0.26458332">G</tspan></text>
    <text xml:space="preserve" style="font-style:normal;font-variant:normal;font-weight:normal;font-stretch:normal;font-size:63.5px;line-height:1.25;font-family:Calibri;-inkscape-font-specification:Calibri;font-variant-ligatures:normal;font-variant-caps:normal;font-variant-numeric:normal;font-feature-settings:normal;text-align:start;letter-spacing:0px;word-spacing:0px;writing-mode:lr-tb;text-anchor:start;fill:#ffffff;fill-opacity:1;stroke:none;stroke-width:0.26458332" x="246.47229" y="0.53763282" id="text124"><tspan sodipodi:role="line" id="tspan122" x="246.47229" y="0.53763282" style="fill:#ffffff;stroke-width:0.26458332">+</tspan></text>
    <text xml:space="preserve" style="font-style:normal;font-variant:normal;font-weight:normal;font-stretch:normal;font-size:63.5px;line-height:1.25;font-family:Calibri;-inkscape-font-specification:Calibri;font-variant-ligatures:normal;font-variant-caps:normal;font-variant-numeric:normal;font-feature-settings:normal;text-align:start;letter-spacing:0px;word-spacing:0px;writing-mode:lr-tb;text-anchor:start;fill:#ffffff;fill-opacity:1;stroke:none;stroke-width:0.26458332" x="302.56378" y="-3.4001114" id="text128"><tspan sodipodi:role="line" id="tspan126" x="302.56378" y="-3.4001114" style="fill:#ffffff;stroke-width:0.26458332">D0</tspan></text>
  </g>
</svg>
